<svg width="96" height="32" fill="none" xmlns="http://www.w3.org/2000/svg" id="svg-41617975_3937"><path d="M9.217 5.83h2.091a7.043 7.043 0 0 1 3.76.476 6.658 6.658 0 0 1 3.008 4.017c.312.88.312.88 1.064.569h.587v-6.97H.047V5.15h.806a2.348 2.348 0 0 1 1.835.862c.752 1.21.88 2.568.88 9.63 0 7.501-.165 9.335-.88 10.27a1.98 1.98 0 0 1-1.523.808c-1.119.202-1.119.183-1.119.678a.734.734 0 0 0 0 .514h12.418a1.157 1.157 0 0 0 0-1.045 6.335 6.335 0 0 0-.918-.184 6.123 6.123 0 0 1-.99-.202 3.302 3.302 0 0 1-1.339-2.99c-.183-1.21-.275-3.43-.275-5.264V16.78h.734a9.906 9.906 0 0 1 2.714.294 3.393 3.393 0 0 1 1.578 2.421l.165.569h1.119v-8.126h-1.028l-.165.789a3.265 3.265 0 0 1-1.669 2.421c-.434.13-.891.16-1.339.092H8.942v-1.981c0-2.054.11-6.383.183-7.062l.092-.367Zm85.838 14.545a6.658 6.658 0 0 0-3.797-2.88 9.172 9.172 0 0 1-3.283-1.834 1.834 1.834 0 0 1-.532-1.633 2.183 2.183 0 0 1 .642-1.54 2.219 2.219 0 0 1 2.201-.606 4.623 4.623 0 0 1 3.247 3.449c.293.825.33.825.862.605l.33-.129V11.24l-.239-.11a14.178 14.178 0 0 0-5.63-.77 6.602 6.602 0 0 0-4.402 1.834 5.063 5.063 0 0 0-1.596 3.962 4.347 4.347 0 0 0 1.247 3.008 7.446 7.446 0 0 0 3.118 1.834c2.843 1.119 3.668 1.834 3.668 3.137a2.42 2.42 0 0 1-1.834 2.402 4.53 4.53 0 0 1-1.944 0 5.65 5.65 0 0 1-3.43-3.87l-.238-.587h-.33a1.469 1.469 0 0 0-.459.11h-.183v5.21h.312a18.86 18.86 0 0 0 3.815.843h1.834a7.189 7.189 0 0 0 2.366-.22 5.704 5.704 0 0 0 4.328-3.668 4.254 4.254 0 0 0 .33-1.651 4.567 4.567 0 0 0-.403-2.33Zm-17.278-9.483a8.455 8.455 0 0 0-6.914.165 8.05 8.05 0 0 0-4.2 5.007 9.795 9.795 0 0 0-.496 3.669 10.03 10.03 0 0 0 .165 2.017 8.144 8.144 0 0 0 6.585 6.567c1.066.134 2.144.134 3.21 0a8.804 8.804 0 0 0 3.118-1.193 5.503 5.503 0 0 0 1.944-1.834.918.918 0 0 0-.44-.568c-.21.075-.407.18-.587.311a5.246 5.246 0 0 1-3.082.862 4.898 4.898 0 0 1-3.906-1.54 4.384 4.384 0 0 1-.936-1.247 8.53 8.53 0 0 1-.898-3.669v-.715H81.5v-.367a9.02 9.02 0 0 0 0-1.1 7.336 7.336 0 0 0-3.723-6.365Zm-5.117 6.346h-1.284v-1.082c.422-2.77 1.468-4.42 2.751-4.42 1.284 0 1.835 1.632 2.073 4.622v.843h-1.1l-2.44.037Zm-26.375-6.951a3.851 3.851 0 0 0-1.834.385 6.144 6.144 0 0 0-2.843 2.843l-.238.44v-3.668h-.092c-.22 0-7.006 1.357-7.227 1.448-.22.092-.146.11-.146.44s0 .386.146.404l.716.147a1.32 1.32 0 0 1 1.027.532c.458.605.55 1.669.55 6.2.09 2.039.005 4.083-.257 6.107a1.503 1.503 0 0 1-1.265 1.192l-.624.129h-.238v.514a.734.734 0 0 0 0 .531h10.253V27.4a1.342 1.342 0 0 0 0-.531 10.256 10.256 0 0 1-1.835-.239 1.835 1.835 0 0 1-.972-1.834c-.146-1.064-.22-4.182-.183-6.567.037-2.384 0-2.53.202-2.696a3.301 3.301 0 0 1 2.146-.678 4.788 4.788 0 0 1 2.09.532c.225.124.466.217.716.275 0 0 1.834-4.44 1.834-4.64a2.163 2.163 0 0 0-1.926-.735ZM33.923 17.99a8.236 8.236 0 0 0-3.778-6.53 9.538 9.538 0 0 0-8.584-.238 8.291 8.291 0 0 0-4.017 4.769 12.253 12.253 0 0 0 0 7.043 7.684 7.684 0 0 0 1.963 3.32 7.447 7.447 0 0 0 4.236 2.054 18.44 18.44 0 0 0 3.082 0c.377-.057.75-.137 1.119-.238a8.162 8.162 0 0 0 5.85-6.512c.184-1.213.227-2.444.129-3.668Zm-7.63 9.171c-1.834.55-3.21-1.229-3.668-4.97a34.373 34.373 0 0 1 0-5.888c.366-3.008 1.302-4.53 2.75-4.53a1.834 1.834 0 0 1 1.542.678c1.228 1.229 1.834 3.668 1.834 7.337a13.591 13.591 0 0 1-.954 6.09 2.788 2.788 0 0 1-1.504 1.191v.092Zm33.015-16.508a6.108 6.108 0 0 0-1.56 0 6.95 6.95 0 0 0-2.88.624l-.568.238v-3.98c.1-1.343.1-2.692 0-4.035-.22 0-7.226 1.339-7.336 1.394a.569.569 0 0 0 0 .422c0 .385 0 .367.825.55.232.052.454.139.66.257.358.337.597.781.68 1.265.208 1.396.276 2.81.2 4.22V27.71l.496.11c.734.165 2.806.514 3.485.587 1.355.108 2.717.108 4.072 0a8.308 8.308 0 0 0 6.86-5.154c.337-.9.57-1.835.696-2.788.11-1.29.066-2.59-.128-3.87a7.062 7.062 0 0 0-5.502-5.943ZM54.502 26.85c0-.238-.183-8.272-.147-11.482v-2.513l.532-.128a3.816 3.816 0 0 1 1.082 0c.397-.04.797.05 1.138.257a5.502 5.502 0 0 1 2.366 4.182 20.164 20.164 0 0 1 0 4.017 8.822 8.822 0 0 1-2.128 5.264c-.36.342-.813.572-1.302.66-.37.064-.749.064-1.119 0-.349 0-.349-.11-.349-.257h-.073Z" fill="#B2B3BD"></path></svg>