<svg width="62" height="32" fill="none" xmlns="http://www.w3.org/2000/svg" id="svg52471858_1099"><path fill-rule="evenodd" clip-rule="evenodd" d="M27.094 13.572h-9.62v7.31h4.51c0 .73-2.084 2.232-5.212 2.232-3.441 0-7.337-2.706-7.415-7.058-.082-4.51 3.82-7.46 7.415-7.33 2.919.103 4.034.94 5.662 2.543l5.04.004a11.401 11.401 0 0 0-.38 2.299Zm2.721-6.946a10.689 10.689 0 0 0-.148-.2C27.274 3.242 23.115.007 16.654 0 9.062-.01 3.202 5.065 1.27 11.28l-.046.153a39.346 39.346 0 0 1-.025.083 15.919 15.919 0 0 0-.61 4.373c.014 1.452.202 2.84.545 4.151 1.219 4.534 4.392 8.276 8.57 10.283l.027.013.075.034a.513.513 0 0 0 .036.017l.027.013c2.109.959 4.477 1.493 6.992 1.513a16.148 16.148 0 0 0 12.953-6.645c.009-.012.071-.102.173-.262l.003.005C32.805 29.063 37.478 32 43.267 32c3.482 0 6.041-1.483 6.855-1.955.084-.048.149-.086.195-.11l1.018 1.178h9.84l-4.368-5.916s2.961-3.781 2.972-8.817C59.803 6.491 52.875.109 43.211.095c-5.593-.009-10.75 2.963-13.396 6.531Zm20.161 10.6.84 1.033c1.47-4.583-2.969-9.407-7.419-9.435-4.053-.027-7.442 3.092-7.501 7.292-.059 4.11 3.933 7.7 8.156 6.872l-4.058-5.761h9.982Z" fill="#B2B3BD"></path></svg>