<svg width="84" height="32" fill="none" xmlns="http://www.w3.org/2000/svg" id="svg1284526935_3732"><path d="M40.066 3.268s-.937.02-1.48.01c-.023.229-.285 2.296-.51 3.958-.26 1.539-2.313 12.952-3.008 16.368-.184 1.032-.75 3.946-.803 4.237a27.9 27.9 0 0 1-1.93.17c-.067.002-.18.024-.233.024v.592c.062-.003.389.022.62.012.554-.017 2.129-.092 2.427-.092 1.132 0 1.887.075 2.935.096.014 0 .301-.001.428-.018v-.597l-.27-.003c-.296.01-1.386-.074-1.938-.15.065-.39 1.028-6.301 1.49-8.665.878-4.375 1.487-7.476 1.487-7.476l.163.385 6.942 16.546 1.268.007s.723-1.792 1.582-3.802c.023-.047.085-.191.172-.397.901-2.087 5.368-12.678 5.368-12.678s.042.191.113.532c.425 2.076 1.864 9.557 2.171 11.362.144.928.279 1.87.358 2.422.115.781.191 1.546.191 1.765-.14.007-1.554.135-2.09.158a2.873 2.873 0 0 0-.227.006v.602c.191 0 .377.008.563.004 1.093-.021 2.143-.107 3.236-.106 1.228.001 3.219.108 4.495.117.143 0 .4-.013.4-.013v-.608c-.074 0-.395-.017-.513-.026-.572-.045-1.535-.134-1.78-.15 0 0-.158-.874-.366-1.883-.834-4.038-3.208-16.311-3.571-19.331-.124-1.038-.476-3.368-.476-3.368h-1.428l-1.394 4c-.454 1.304-1.07 2.914-1.54 4.148-2.321 6.1-4.924 11.782-4.924 11.782s-5.53-13.197-5.824-13.96c-.296-.764-2.104-5.98-2.104-5.98Zm-39.76.006.012 1.395-.024 3.397.368-.01.039-3.022s2.018-.018 2.279-.017l3.762.001 2.429.013.004 21.01v1.816l-.05.007a82.91 82.91 0 0 1-2.073.119 4.59 4.59 0 0 1-.198.005l.002.615c.091.004.337.01.37.01 1.195-.016 2.812-.12 3.959-.12 1.165.002 2.805.115 3.82.127.1 0 .219-.01.316-.01v-.576h-.126a56.228 56.228 0 0 1-2.297-.14l-.04-1.673.008-21.193 1.85-.005 4.823.004 1.61.022c.011.115.092 1.645.091 1.687-.004.111.06 1.251.058 1.532l.381.004-.027-3.436.017-1.545c-1.417.038-5.03.087-10.638.084-4.808-.003-9.443-.043-10.725-.101Zm22.459.005.006.602c.19.01 1.31.11 1.581.123.217.026.52.053.737.074 0 .193.004 1.523.007 2.047.036 4.973.005 15.965-.01 19.854l-.007 1.849c-.137.041-.446.056-.78.08-.285.018-1.307.104-1.535.11v.601c.094 0 .268.02.367.02 1.157 0 2.766-.144 3.951-.143 1.198 0 2.798.146 3.741.147h-.003c.082.001.276-.02.358-.02v-.601h-.082c-.036-.008-1.253-.06-1.549-.09-.154-.01-.825-.068-.833-.09a10.426 10.426 0 0 1-.006-.492c.003-.285.003-.758.003-1.271l.017-20.027c0-.86.003-1.56.003-1.935.262-.017 1.332-.129 1.715-.162l.732-.044v-.627c-1.31 0-3.042.102-4.32.101-1.337 0-2.984-.105-4.093-.106Zm60.607.017-.394.001c-.876.004-3.118.02-5.74.035-1.611.01-2.87.022-4.529.021-1.163.014-2.79.059-3.796.057-1.605-.003-2.915-.101-3.627-.104-.338-.002-.527.01-.62.005.005.009.005.594.005.594.063.011.186.025.302.022.403.027 1.157.088 1.54.139.076.014.206.035.566.075-.002.133.017 1.641.015 2.547l-.009 19.565c0 .03-.042 1.505-.042 1.625-.637.108-1.859.175-2.276.177h-.124v.596c.06 0 .333.01.488.01.673 0 2.407-.107 4.179-.108 1.242-.001 2.608.045 3.99.065 1.705.024 3.428.025 4.977.047 2.555.036 4.625.039 5.298.04 0 0 .081-4.738.081-5.12l-.369.004c0 .403-.149 1.904-.155 1.97a39.659 39.659 0 0 1-.138 1.448s-.18.015-.267.013c-.42-.008-1.76.04-1.788.04l-5.98.003-4.199-.07-.028-1.165-.003-9.043c.75-.026 1.893-.066 2.589-.064.591.001 1.985-.032 2.765-.03 1.896.003 3.58.015 3.715.019.313.009.893.028 1.112.042.009.08.034.204.037.239a33.7 33.7 0 0 1 .25 1.852c.012.061.018.12.026.176h.43s.012-.243.007-.394c-.009-.534-.043-1.597-.043-2.775-.002-.817.045-2.066.051-2.667.003-.163-.017-.278-.017-.325l-.394.008c-.003.13-.034.321-.034.321-.034.448-.16 1.02-.262 1.624-.028.075-.048.18-.048.18a32.81 32.81 0 0 1-1.391.08c-.042 0-1.842.05-1.873.05l-6.917-.025.011-9.973s.88-.03 1.124-.03c.997.001 2.62-.008 4.273-.006 2.419.003 4.768.018 4.773.022.014.007.73.016.744.029.017.013.912.04 1.132.047 0 0 .017.074.028.168.099 1.051.18 2.3.217 2.742l.003.178.369-.001c0-.648-.034-2.63-.04-3.892-.003-.405.006-.735.006-.923v-.16Z" fill="#B2B3BD"></path></svg>