<svg width="105" height="32" fill="none" xmlns="http://www.w3.org/2000/svg" id="svg361106126_1709"><path fill-rule="evenodd" clip-rule="evenodd" d="M53.855 2.353c-4.535.294-9.892 6.224-9.865 12.918.027 6.693 3.72 13.494 10.512 13.557 1.338.012 2.55-.509 3.721-1.011 1.077-.463 2.118-.91 3.188-.913 1.748-.005 2.092 1.494 2.092 1.494h.173V18.01h2.119v-.303h-8.59v.303h2.216v7.105c-.507 2.337-2.461 3.492-5.101 3.492-5.45 0-5.587-8.86-5.587-13.336 0-4.476.452-12.689 5.122-12.689 6.323 0 8.012 8.465 8.012 8.854h.176V2.317h-.176c-.324 1.031-2.146 1.593-3.039 1.205-1.23-.535-3.335-1.285-4.973-1.169ZM19.722 15.104c0-5.883 4.964-12.627 11.032-12.67 6.069-.044 11.232 6.525 11.232 12.67 0 5.564-3.838 13.694-11.231 13.718-7.394.025-11.033-7.527-11.033-13.718Zm17.482 0c0-6.83-1.37-12.44-6.45-12.44-5.079 0-6.356 6.3-6.356 12.44 0 9.804 1.56 13.443 6.357 13.451 4.796.009 6.449-4.438 6.449-13.45ZM3.063 3.331H.388v-.3h9.37v.3h-2.35l6.694 18.181c.69-2.124 1.328-4.065 1.953-5.963A829.347 829.347 0 0 0 20 3.33h-2.325v-.3h4.947v.3h-2.253l-8.137 25.366L3.062 3.33Zm64-.029.043 19.185c.01 4.41 4.482 6.443 8.99 6.464 4.85.022 6.742-3.218 7.26-5.177V3.302h4.567v24.77H85.81v.298h18.697v-9.763h-.261c.013 3.977-1.642 7.942-6.342 9.23-1.164.32-2.462.291-3.986.258-.499-.011-1.023-.023-1.574-.023V15.517c1.581-.292 3.181.01 4.438 1.236 1.006.981 1.256 2.84 1.348 3.524.022.165.035.262.047.262h.218V10.305h-.201c-.077.84-.371 2.905-1.412 3.8-1.145.982-2.843 1.083-4.438.96V3.31c.603.005 1.163-.01 1.694-.024 1.083-.03 2.04-.055 2.967.097 4.012.655 6.307 2.903 6.749 8.849h.229l-.05-9.21H80.095v.28h2.912v20.47c-.864 2.804-3.19 4.855-6.611 4.828-3.422-.027-4.423-1.855-4.986-4.264l-.057-21.035h2.544v-.287h-9.38v.287h2.547Z" fill="#B2B3BD"></path></svg>