<svg width="111" height="61" fill="none" xmlns="http://www.w3.org/2000/svg" id="svg-897729206_6531"><path d="M8.112 17.288c-.896 0-1.76-.088-2.592-.264a7.136 7.136 0 0 1-2.184-.84A4.697 4.697 0 0 1 1.8 14.648c-.368-.624-.552-1.392-.552-2.304v-.24c.016-.08.024-.16.024-.24h2.304c0 .048-.008.128-.024.24v.264c0 .64.192 1.184.576 1.632.384.448.912.784 1.584 1.008.688.208 1.464.312 2.328.312.384 0 .784-.024 1.2-.072.432-.048.84-.128 1.224-.24.4-.128.752-.288 1.056-.48.32-.208.568-.456.744-.744.192-.304.288-.672.288-1.104 0-.544-.16-.992-.48-1.344-.304-.368-.712-.664-1.224-.888a10.61 10.61 0 0 0-1.752-.624 50.433 50.433 0 0 0-1.992-.552 26.758 26.758 0 0 1-2.016-.6 8.714 8.714 0 0 1-1.728-.864 4.375 4.375 0 0 1-1.248-1.296C1.808 6 1.656 5.376 1.656 4.64c0-.688.136-1.304.408-1.848.288-.544.704-1 1.248-1.368C3.872 1.04 4.56.752 5.376.56 6.192.352 7.128.248 8.184.248c.864 0 1.664.096 2.4.288.752.176 1.408.456 1.968.84.576.368 1.024.84 1.344 1.416.32.576.48 1.272.48 2.088v.288H12.12v-.36c0-.544-.168-1.008-.504-1.392-.336-.384-.8-.68-1.392-.888-.576-.208-1.232-.312-1.968-.312-.96 0-1.76.096-2.4.288-.64.176-1.12.44-1.44.792-.304.336-.456.72-.456 1.152 0 .496.152.912.456 1.248.32.336.736.616 1.248.84.512.208 1.096.4 1.752.576.656.176 1.32.36 1.992.552a19.27 19.27 0 0 1 1.992.624c.656.224 1.24.512 1.752.864.528.336.944.768 1.248 1.296.304.512.456 1.144.456 1.896 0 1.168-.288 2.12-.864 2.856-.576.72-1.368 1.248-2.376 1.584-1.008.336-2.176.504-3.504.504ZM21.284 17V2.528h-5.64V.536h13.608v1.992h-5.688V17h-2.28Zm16.236.288c-1.393 0-2.593-.224-3.6-.672a4.896 4.896 0 0 1-2.329-2.112c-.528-.976-.792-2.224-.792-3.744V.536h2.28V11c0 1.44.384 2.52 1.152 3.24.784.72 1.88 1.08 3.288 1.08 1.424 0 2.536-.36 3.336-1.08.8-.72 1.2-1.8 1.2-3.24V.536h2.256V10.76c0 1.52-.272 2.768-.816 3.744a4.879 4.879 0 0 1-2.352 2.112c-1.008.448-2.216.672-3.624.672ZM47.442 17V.536h6.144c1.728 0 3.2.288 4.416.864 1.216.576 2.144 1.472 2.784 2.688.656 1.2.984 2.76.984 4.68 0 1.888-.328 3.44-.984 4.656-.64 1.216-1.568 2.12-2.784 2.712-1.216.576-2.688.864-4.416.864h-6.144Zm2.28-1.968h3.816c.912 0 1.728-.112 2.448-.336.72-.24 1.336-.6 1.848-1.08.512-.48.896-1.096 1.152-1.848.272-.768.408-1.68.408-2.736v-.48c0-1.088-.136-2.008-.408-2.76-.256-.768-.64-1.392-1.152-1.872-.496-.48-1.104-.832-1.824-1.056-.72-.24-1.544-.36-2.472-.36h-3.816v12.528ZM64.107 17V.536h2.28V17h-2.28Zm12.83.288c-1.712 0-3.184-.312-4.416-.936-1.216-.624-2.16-1.568-2.832-2.832-.656-1.264-.984-2.848-.984-4.752 0-1.92.328-3.504.984-4.752.672-1.264 1.616-2.208 2.832-2.832C73.753.56 75.225.248 76.937.248c1.712 0 3.176.312 4.392.936 1.232.624 2.176 1.568 2.832 2.832.672 1.248 1.008 2.832 1.008 4.752 0 1.904-.336 3.488-1.008 4.752-.656 1.264-1.6 2.208-2.832 2.832-1.216.624-2.68.936-4.392.936Zm0-1.968c.896 0 1.704-.12 2.424-.36.736-.24 1.352-.616 1.848-1.128.512-.528.904-1.184 1.176-1.968.272-.8.408-1.744.408-2.832v-.504c0-1.104-.136-2.048-.408-2.832-.272-.8-.664-1.456-1.176-1.968a4.325 4.325 0 0 0-1.848-1.152c-.72-.24-1.528-.36-2.424-.36-.912 0-1.728.12-2.448.36s-1.336.624-1.848 1.152c-.512.512-.904 1.168-1.176 1.968-.256.784-.384 1.728-.384 2.832v.504c0 1.088.128 2.032.384 2.832.272.784.664 1.44 1.176 1.968a4.652 4.652 0 0 0 1.848 1.128c.72.24 1.536.36 2.448.36ZM3.984 39 .12 22.488h5.52l1.44 7.056c.032.128.072.328.12.6.048.256.104.544.168.864.064.304.12.584.168.84h.096c.032-.144.064-.312.096-.504.048-.208.088-.416.12-.624.048-.208.088-.416.12-.624.048-.208.088-.392.12-.552l1.416-7.056h5.232l1.512 7.056c.032.16.072.376.12.648.064.272.128.56.192.864.064.288.12.552.168.792h.096c.032-.16.064-.336.096-.528.048-.208.088-.416.12-.624.032-.208.064-.408.096-.6.048-.208.088-.392.12-.552l1.344-7.056h5.28L20.016 39h-5.832l-1.632-7.728a9.501 9.501 0 0 0-.144-.72l-.192-.864c-.064-.288-.12-.536-.168-.744h-.096c-.048.192-.104.432-.168.72-.048.272-.104.552-.168.84-.064.272-.12.528-.168.768L9.816 39H3.984Zm18.101 0 6.024-16.512h6.168L40.3 39h-5.616l-.696-2.328h-5.784L27.509 39h-5.424Zm7.224-6.024h3.6l-.792-2.64a20.852 20.852 0 0 1-.216-.696c-.08-.272-.16-.56-.24-.864-.08-.304-.16-.6-.24-.888a39.8 39.8 0 0 0-.216-.792h-.192c-.064.288-.152.616-.264.984-.096.368-.2.752-.312 1.152-.112.384-.224.752-.336 1.104l-.792 2.64ZM41.34 39V22.488h4.512l5.136 5.928c.144.16.336.392.576.696.24.304.48.616.72.936.256.304.448.552.576.744l.12-.048a36.99 36.99 0 0 1-.024-1.32v-6.936h4.824V39h-4.488l-5.784-6.6c-.272-.32-.504-.608-.696-.864a52.418 52.418 0 0 0-.552-.768l-.12.048c.016.304.024.608.024.912V39H41.34Zm19.033 0V22.488h7.152c1.888 0 3.472.296 4.752.888 1.28.592 2.248 1.496 2.904 2.712.672 1.216 1.008 2.768 1.008 4.656 0 1.872-.336 3.424-1.008 4.656-.656 1.216-1.624 2.12-2.904 2.712-1.28.592-2.864.888-4.752.888h-7.152Zm5.304-3.96h1.752c.576 0 1.072-.08 1.488-.24.432-.16.784-.392 1.056-.696.272-.304.472-.68.6-1.128.128-.448.192-.952.192-1.512v-1.44c0-.56-.064-1.064-.192-1.512a2.827 2.827 0 0 0-.6-1.128 2.596 2.596 0 0 0-1.056-.696c-.416-.16-.912-.24-1.488-.24h-1.752v8.592ZM78.164 39V22.488h14.28v3.96h-8.976v2.28h7.68v3.792h-7.68v2.52h9.144V39H78.164Zm16.289 0V22.488h10.344c1.232 0 2.256.248 3.072.744.832.496 1.456 1.144 1.872 1.944.416.8.624 1.664.624 2.592 0 1.056-.248 2-.744 2.832a5.66 5.66 0 0 1-2.016 1.968l3.24 6.432h-5.952l-2.52-5.544h-2.616V39h-5.304Zm5.304-9.216h3.72c.416 0 .768-.16 1.056-.48.288-.336.432-.776.432-1.32a1.96 1.96 0 0 0-.192-.888 1.485 1.485 0 0 0-.528-.6c-.224-.16-.48-.24-.768-.24h-3.72v3.528ZM1.776 61V44.488H7.08v12.288h8.472V61H1.776Z" fill="#fff"></path><path d="m15.288 61 6.024-16.512h6.168L33.504 61h-5.616l-.696-2.328h-5.784L20.712 61h-5.424Zm7.224-6.024h3.6l-.792-2.64a20.852 20.852 0 0 1-.216-.696c-.08-.272-.16-.56-.24-.864-.08-.304-.16-.6-.24-.888a39.8 39.8 0 0 0-.216-.792h-.192c-.064.288-.152.616-.264.984-.096.368-.2.752-.312 1.152-.112.384-.224.752-.336 1.104l-.792 2.64ZM34.544 61V44.488h4.512l5.136 5.928c.144.16.336.392.575.696.24.304.48.616.72.936.256.304.448.552.576.744l.12-.048a36.99 36.99 0 0 1-.023-1.32v-6.936h4.824V61h-4.489l-5.783-6.6a17.89 17.89 0 0 1-.697-.864 52.418 52.418 0 0 0-.551-.768l-.12.048c.015.304.023.608.023.912V61h-4.823Zm19.032 0V44.488h7.152c1.888 0 3.472.296 4.752.888 1.28.592 2.248 1.496 2.904 2.712.672 1.216 1.008 2.768 1.008 4.656 0 1.872-.336 3.424-1.008 4.656-.656 1.216-1.624 2.12-2.904 2.712-1.28.592-2.864.888-4.752.888h-7.152Zm5.304-3.96h1.752c.576 0 1.072-.08 1.488-.24.432-.16.784-.392 1.056-.696.272-.304.472-.68.6-1.128.128-.448.192-.952.192-1.512v-1.44c0-.56-.064-1.064-.192-1.512a2.827 2.827 0 0 0-.6-1.128 2.596 2.596 0 0 0-1.056-.696c-.416-.16-.912-.24-1.488-.24H58.88v8.592Z" fill="#fff"></path></svg>